HIERARCHY
ROOT root
{
	OFFSET	0	13.1	24.9
	CHANNELS 6  Xposition Yposition Zposition Xrotation Yrotation Zrotation
	JOINT spine_1
	{
		OFFSET	0	9.99999	0
		CHANNELS 3  Xrotation Yrotation Zrotation
		JOINT spine_2
		{
			OFFSET	0	112	-10
			CHANNELS 3  Xrotation Yrotation Zrotation
			JOINT spine_3
			{
				OFFSET	0	206.5	19.3
				CHANNELS 3  Xrotation Yrotation Zrotation
				JOINT spine_4
				{
					OFFSET	0	110.4	14.6
					CHANNELS 3  Xrotation Yrotation Zrotation
					JOINT neck_1
					{
						OFFSET	0	71.8	-50.3
						CHANNELS 3  Xrotation Yrotation Zrotation
						JOINT neck_2
						{
							OFFSET	0	86.2	-25.8
							CHANNELS 3  Xrotation Yrotation Zrotation
							JOINT head_ee
							{
								OFFSET	0	179.8	-8.7
								CHANNELS 3  Xrotation Yrotation Zrotation
								End Site
								{
									OFFSET	1	0	0
								}
							}
						}
					}
					JOINT left_clavicle
					{
						OFFSET	-43.2	22.4	-70.8
						CHANNELS 3  Xrotation Yrotation Zrotation
						JOINT left_shoulder
						{
							OFFSET	-93.9	-5.79999	48.7
							CHANNELS 3  Xrotation Yrotation Zrotation
							JOINT left_elbow
							{
								OFFSET	-291.4	-30.8	15.2
								CHANNELS 3  Xrotation Yrotation Zrotation
								JOINT left_lowarm_twist
								{
									OFFSET	-110.7	-3.89999	13.6
									CHANNELS 3  Xrotation Yrotation Zrotation
									JOINT left_hand
									{
										OFFSET	-110.7	-3.89999	13.6
										CHANNELS 3  Xrotation Yrotation Zrotation
										JOINT left_ee
										{
											OFFSET	-80.8	-5.10001	12.1
											CHANNELS 3  Xrotation Yrotation Zrotation
											End Site
											{
												OFFSET	1	0	0
											}
										}
									}
								}
							}
						}
					}
					JOINT right_clavicle
					{
						OFFSET	43.2	22.4	-70.8
						CHANNELS 3  Xrotation Yrotation Zrotation
						JOINT right_shoulder
						{
							OFFSET	93.9	-5.79999	48.7
							CHANNELS 3  Xrotation Yrotation Zrotation
							JOINT right_elbow
							{
								OFFSET	291.4	-30.8	15.2
								CHANNELS 3  Xrotation Yrotation Zrotation
								JOINT right_lowarm_twist
								{
									OFFSET	110.7	-3.89999	13.6
									CHANNELS 3  Xrotation Yrotation Zrotation
									JOINT right_hand
									{
										OFFSET	110.7	-3.89999	13.6
										CHANNELS 3  Xrotation Yrotation Zrotation
										JOINT right_ee
										{
											OFFSET	80.8	-5.10001	12.1
											CHANNELS 3  Xrotation Yrotation Zrotation
											End Site
											{
												OFFSET	1	0	0
											}
										}
									}
								}
							}
						}
					}
				}
			}
		}
	}
	JOINT left_hip
	{
		OFFSET	-82.8	-127.5	0.300001
		CHANNELS 3  Xrotation Yrotation Zrotation
		JOINT left_knee
		{
			OFFSET	-28.2	-396.7	2.2
			CHANNELS 3  Xrotation Yrotation Zrotation
			JOINT left_ankle
			{
				OFFSET	-11.7	-411.3	35.4
				CHANNELS 3  Xrotation Yrotation Zrotation
				JOINT left_toes
				{
					OFFSET	0	-60	-88.6
					CHANNELS 3  Xrotation Yrotation Zrotation
					JOINT left_foot_ee
					{
						OFFSET	-22.5	-16.5	-42.2
						CHANNELS 3  Xrotation Yrotation Zrotation
						End Site
						{
							OFFSET	1	0	0
						}
					}
				}
			}
		}
	}
	JOINT right_hip
	{
		OFFSET	82.8	-127.5	0.300001
		CHANNELS 3  Xrotation Yrotation Zrotation
		JOINT right_knee
		{
			OFFSET	28.2	-396.7	2.2
			CHANNELS 3  Xrotation Yrotation Zrotation
			JOINT right_ankle
			{
				OFFSET	11.7	-411.3	35.4
				CHANNELS 3  Xrotation Yrotation Zrotation
				JOINT right_toes
				{
					OFFSET	0	-60	-88.6
					CHANNELS 3  Xrotation Yrotation Zrotation
					JOINT right_foot_ee
					{
						OFFSET	22.5	-16.5	-42.2
						CHANNELS 3  Xrotation Yrotation Zrotation
						End Site
						{
							OFFSET	1	0	0
						}
					}
				}
			}
		}
	}
}
MOTION
Frames: 15
Frame Time: 0.02
3574.42 741.953 -1474.73 44.5355324444 71.2075964308 -35.706187998 -6.72491 -0.34957 -2.07505 -6.72254 -0.21685 -2.09308 -6.70905 0.470893 -2.05094 -6.7149 0.141151 -2.09954 -16.3572 12.2983 14.2527 -16.0038 15.4901 17.6063 -0.0 0.0 -0.0 8.02923 14.7828 14.8663 3.08054 -24.1084 64.266 1.41562 -35.0383 0.446884 -85.7342 -8.54358 5.16595 -0.862636 -4.07538 -7.55422 -0.0 0.0 -0.0 9.72206 8.70348 -19.2416 -10.665 19.0028 -49.2064 0.521906 14.4958 -0.066376 70.2045 2.76162 7.96416 1.552 -8.45754 -13.6823 0.0 0.0 0.0 -14.6377 38.0366 -11.0425 6.66768 -0.331405 -0.968582 20.4474 -6.72204 -2.86855 -36.4757 0.0 0.0 -0.0 0.0 -0.0 4.39217 38.7182 -14.9355 -20.6561 -0.287262 -3.13968 30.4662 -9.75631 3.94574 -19.1694 0.0 0.0 0.0 0.0 0.0 
3570.49885952 727.096 -1483.03087262 43.4827521453 71.2067331706 -34.9875750888 -6.5727 -0.304829 -1.91455 -6.57068 -0.182407 -1.93006 -6.55993 0.445908 -1.8867 -6.56487 0.142401 -1.93342 -15.6293 11.9953 13.4745 -15.3121 15.1456 16.6761 -0.0 0.0 -0.0 8.15411 14.3449 15.1178 2.27951 -25.0469 62.7994 1.46658 -35.9961 0.476487 -85.4145 -8.5037 5.17421 -0.725263 -3.00499 -6.15708 -0.0 0.0 -0.0 9.77463 9.95884 -19.3419 -10.7547 18.8646 -48.9291 0.548047 15.1891 -0.0730726 70.4489 2.78708 7.98246 1.48298 -7.90386 -13.0176 0.0 0.0 0.0 -14.9448 37.7887 -11.2409 6.63339 -0.329413 -0.963702 21.5301 -9.3696 -3.04113 -36.9417 0.0 0.0 -0.0 0.0 -0.0 3.79953 37.8379 -14.8569 -21.4016 -0.276348 -3.25356 32.6907 -7.98031 4.1717 -17.7255 0.0 0.0 0.0 0.0 0.0 
3570.58352694 727.096 -1483.07034193 42.3304274183 70.7796715454 -33.7688161664 -6.5727 -0.304829 -1.91455 -6.57068 -0.182407 -1.93006 -6.55993 0.445908 -1.8867 -6.56487 0.142401 -1.93342 -15.6293 11.9953 13.4745 -15.3121 15.1456 16.6761 -0.0 0.0 -0.0 8.15411 14.3449 15.1178 2.27951 -25.0469 62.7994 1.46658 -35.9961 0.476487 -85.4145 -8.5037 5.17421 -0.725263 -3.00499 -6.15708 -0.0 0.0 -0.0 9.77463 9.95884 -19.3419 -10.7547 18.8646 -48.9291 0.548047 15.1891 -0.0730726 70.4489 2.78708 7.98246 1.48298 -7.90386 -13.0176 0.0 0.0 0.0 -14.9448 37.7887 -11.2409 6.63339 -0.329413 -0.963702 21.5301 -9.3696 -3.04113 -36.9417 0.0 0.0 -0.0 0.0 -0.0 3.79953 37.8379 -14.8569 -21.4016 -0.276348 -3.25356 32.6907 -7.98031 4.1717 -17.7255 0.0 0.0 0.0 0.0 0.0 
3570.71335295 727.096 -1483.12884496 40.6722044319 70.1139878877 -32.0091586149 -6.5727 -0.304829 -1.91455 -6.57068 -0.182407 -1.93006 -6.55993 0.445908 -1.8867 -6.56487 0.142401 -1.93342 -15.6293 11.9953 13.4745 -15.3121 15.1456 16.6761 -0.0 0.0 -0.0 8.15411 14.3449 15.1178 2.27951 -25.0469 62.7994 1.46658 -35.9961 0.476487 -85.4145 -8.5037 5.17421 -0.725263 -3.00499 -6.15708 -0.0 0.0 -0.0 9.77463 9.95884 -19.3419 -10.7547 18.8646 -48.9291 0.548047 15.1891 -0.0730726 70.4489 2.78708 7.98246 1.48298 -7.90386 -13.0176 0.0 0.0 0.0 -14.9448 37.7887 -11.2409 6.63339 -0.329413 -0.963702 21.5301 -9.3696 -3.04113 -36.9417 0.0 0.0 -0.0 0.0 -0.0 3.79953 37.8379 -14.8569 -21.4016 -0.276348 -3.25356 32.6907 -7.98031 4.1717 -17.7255 0.0 0.0 0.0 0.0 0.0 
3570.82707975 727.096 -1483.17812128 39.319558597 69.5213351785 -30.5680547384 -6.5727 -0.304829 -1.91455 -6.57068 -0.182407 -1.93006 -6.55993 0.445908 -1.8867 -6.56487 0.142401 -1.93342 -15.6293 11.9953 13.4745 -15.3121 15.1456 16.6761 -0.0 0.0 -0.0 8.15411 14.3449 15.1178 2.27951 -25.0469 62.7994 1.46658 -35.9961 0.476487 -85.4145 -8.5037 5.17421 -0.725263 -3.00499 -6.15708 -0.0 0.0 -0.0 9.77463 9.95884 -19.3419 -10.7547 18.8646 -48.9291 0.548047 15.1891 -0.0730726 70.4489 2.78708 7.98246 1.48298 -7.90386 -13.0176 0.0 0.0 0.0 -14.9448 37.7887 -11.2409 6.63339 -0.329413 -0.963702 21.5301 -9.3696 -3.04113 -36.9417 0.0 0.0 -0.0 0.0 -0.0 3.79953 37.8379 -14.8569 -21.4016 -0.276348 -3.25356 32.6907 -7.98031 4.1717 -17.7255 0.0 0.0 0.0 0.0 0.0 
3570.99109383 727.096 -1483.2460103 37.5177995212 68.6532117753 -28.6393136237 -6.5727 -0.304829 -1.91455 -6.57068 -0.182407 -1.93006 -6.55993 0.445908 -1.8867 -6.56487 0.142401 -1.93342 -15.6293 11.9953 13.4745 -15.3121 15.1456 16.6761 -0.0 0.0 -0.0 8.15411 14.3449 15.1178 2.27951 -25.0469 62.7994 1.46658 -35.9961 0.476487 -85.4145 -8.5037 5.17421 -0.725263 -3.00499 -6.15708 -0.0 0.0 -0.0 9.77463 9.95884 -19.3419 -10.7547 18.8646 -48.9291 0.548047 15.1891 -0.0730726 70.4489 2.78708 7.98246 1.48298 -7.90386 -13.0176 0.0 0.0 0.0 -14.9448 37.7887 -11.2409 6.63339 -0.329413 -0.963702 21.5301 -9.3696 -3.04113 -36.9417 0.0 0.0 -0.0 0.0 -0.0 3.79953 37.8379 -14.8569 -21.4016 -0.276348 -3.25356 32.6907 -7.98031 4.1717 -17.7255 0.0 0.0 0.0 0.0 0.0 
3571.15963026 727.096 -1483.31194722 35.8310066936 67.7471921584 -26.8226803498 -6.5727 -0.304829 -1.91455 -6.57068 -0.182407 -1.93006 -6.55993 0.445908 -1.8867 -6.56487 0.142401 -1.93342 -15.6293 11.9953 13.4745 -15.3121 15.1456 16.6761 -0.0 0.0 -0.0 8.15411 14.3449 15.1178 2.27951 -25.0469 62.7994 1.46658 -35.9961 0.476487 -85.4145 -8.5037 5.17421 -0.725263 -3.00499 -6.15708 -0.0 0.0 -0.0 9.77463 9.95884 -19.3419 -10.7547 18.8646 -48.9291 0.548047 15.1891 -0.0730726 70.4489 2.78708 7.98246 1.48298 -7.90386 -13.0176 0.0 0.0 0.0 -14.9448 37.7887 -11.2409 6.63339 -0.329413 -0.963702 21.5301 -9.3696 -3.04113 -36.9417 0.0 0.0 -0.0 0.0 -0.0 3.79953 37.8379 -14.8569 -21.4016 -0.276348 -3.25356 32.6907 -7.98031 4.1717 -17.7255 0.0 0.0 0.0 0.0 0.0 
3571.42544954 727.096 -1483.40827728 33.4646951316 66.2951361399 -24.252688013 -6.5727 -0.304829 -1.91455 -6.57068 -0.182407 -1.93006 -6.55993 0.445908 -1.8867 -6.56487 0.142401 -1.93342 -15.6293 11.9953 13.4745 -15.3121 15.1456 16.6761 -0.0 0.0 -0.0 8.15411 14.3449 15.1178 2.27951 -25.0469 62.7994 1.46658 -35.9961 0.476487 -85.4145 -8.5037 5.17421 -0.725263 -3.00499 -6.15708 -0.0 0.0 -0.0 9.77463 9.95884 -19.3419 -10.7547 18.8646 -48.9291 0.548047 15.1891 -0.0730726 70.4489 2.78708 7.98246 1.48298 -7.90386 -13.0176 0.0 0.0 0.0 -14.9448 37.7887 -11.2409 6.63339 -0.329413 -0.963702 21.5301 -9.3696 -3.04113 -36.9417 0.0 0.0 -0.0 0.0 -0.0 3.79953 37.8379 -14.8569 -21.4016 -0.276348 -3.25356 32.6907 -7.98031 4.1717 -17.7255 0.0 0.0 0.0 0.0 0.0 
3571.74540102 727.096 -1483.51216086 31.0169725011 64.5188195754 -21.5611822068 -6.5727 -0.304829 -1.91455 -6.57068 -0.182407 -1.93006 -6.55993 0.445908 -1.8867 -6.56487 0.142401 -1.93342 -15.6293 11.9953 13.4745 -15.3121 15.1456 16.6761 -0.0 0.0 -0.0 8.15411 14.3449 15.1178 2.27951 -25.0469 62.7994 1.46658 -35.9961 0.476487 -85.4145 -8.5037 5.17421 -0.725263 -3.00499 -6.15708 -0.0 0.0 -0.0 9.77463 9.95884 -19.3419 -10.7547 18.8646 -48.9291 0.548047 15.1891 -0.0730726 70.4489 2.78708 7.98246 1.48298 -7.90386 -13.0176 0.0 0.0 0.0 -14.9448 37.7887 -11.2409 6.63339 -0.329413 -0.963702 21.5301 -9.3696 -3.04113 -36.9417 0.0 0.0 -0.0 0.0 -0.0 3.79953 37.8379 -14.8569 -21.4016 -0.276348 -3.25356 32.6907 -7.98031 4.1717 -17.7255 0.0 0.0 0.0 0.0 0.0 
3548.63211161 723.787 -1512.64896072 32.5256367896 64.9280696486 -23.8151913425 -6.44361 -0.573587 -1.70281 -6.44211 -0.464087 -1.73584 -6.4238 0.112412 -1.79327 -6.42825 -0.172167 -1.78853 -12.1604 11.4825 10.9977 -11.9382 14.7532 13.745 -0.0 0.0 -0.0 8.2171 14.6676 15.1961 -3.92824 -26.0941 58.0658 1.67694 -39.7134 0.605648 -79.0304 -7.6987 5.29175 -0.624556 7.77546 -0.813893 -0.0 0.0 -0.0 9.63392 14.4449 -18.9055 -11.6321 17.3612 -52.2808 0.655447 17.9881 -0.103744 75.0287 3.27819 8.30508 0.943841 -3.63144 -7.77901 0.0 0.0 0.0 -15.2445 38.4556 -13.0581 5.57108 -0.269168 -0.811977 20.2901 -23.6455 -3.21689 -40.2749 0.0 0.0 -0.0 0.0 -0.0 0.96737 36.9515 -15.6351 -24.2276 -0.221548 -3.68371 40.1751 -5.84929 4.87353 -9.77399 0.0 0.0 0.0 0.0 0.0 
3551.6817065 723.787 -1514.55251598 28.0759089552 61.0455857515 -18.8240744358 -6.44361 -0.573587 -1.70281 -6.44211 -0.464087 -1.73584 -6.4238 0.112412 -1.79327 -6.42825 -0.172167 -1.78853 -12.1604 11.4825 10.9977 -11.9382 14.7532 13.745 -0.0 0.0 -0.0 8.2171 14.6676 15.1961 -3.92824 -26.0941 58.0658 1.67694 -39.7134 0.605648 -79.0304 -7.6987 5.29175 -0.624556 7.77546 -0.813893 -0.0 0.0 -0.0 9.63392 14.4449 -18.9055 -11.6321 17.3612 -52.2808 0.655447 17.9881 -0.103744 75.0287 3.27819 8.30508 0.943841 -3.63144 -7.77901 0.0 0.0 0.0 -15.2445 38.4556 -13.0581 5.57108 -0.269168 -0.811977 20.2901 -23.6455 -3.21689 -40.2749 0.0 0.0 -0.0 0.0 -0.0 0.96737 36.9515 -15.6351 -24.2276 -0.221548 -3.68371 40.1751 -5.84929 4.87353 -9.77399 0.0 0.0 0.0 0.0 0.0 
3554.52118112 723.787 -1516.04464362 25.0604767797 57.4587423066 -15.3174189828 -6.44361 -0.573587 -1.70281 -6.44211 -0.464087 -1.73584 -6.4238 0.112412 -1.79327 -6.42825 -0.172167 -1.78853 -12.1604 11.4825 10.9977 -11.9382 14.7532 13.745 -0.0 0.0 -0.0 8.2171 14.6676 15.1961 -3.92824 -26.0941 58.0658 1.67694 -39.7134 0.605648 -79.0304 -7.6987 5.29175 -0.624556 7.77546 -0.813893 -0.0 0.0 -0.0 9.63392 14.4449 -18.9055 -11.6321 17.3612 -52.2808 0.655447 17.9881 -0.103744 75.0287 3.27819 8.30508 0.943841 -3.63144 -7.77901 0.0 0.0 0.0 -15.2445 38.4556 -13.0581 5.57108 -0.269168 -0.811977 20.2901 -23.6455 -3.21689 -40.2749 0.0 0.0 -0.0 0.0 -0.0 0.96737 36.9515 -15.6351 -24.2276 -0.221548 -3.68371 40.1751 -5.84929 4.87353 -9.77399 0.0 0.0 0.0 0.0 0.0 
3487.40405892 735.47 -1543.32257026 47.6289752214 71.4592067316 -43.5101506984 -7.1596 0.0617647 -0.631711 -7.15938 0.101836 -0.626501 -7.16015 0.303122 -0.557668 -7.16052 0.211246 -0.59854 -12.864 8.1379 13.1895 -12.4068 7.14491 14.9386 -0.0 0.0 -0.0 8.52393 16.622 15.5151 -7.73172 -18.7961 59.6657 1.57354 -37.9331 0.540815 -77.0385 -7.44508 5.30981 -0.278489 22.6954 7.45356 -0.0 0.0 -0.0 11.0031 20.9972 -21.5872 -7.73855 16.233 -54.155 0.62149 17.112 -0.0935045 84.3765 4.35203 8.83698 0.65267 0.848113 -4.01323 0.0 0.0 0.0 2.36003 16.4968 -20.0758 -43.9548 -0.737347 6.54284 -4.51725 -16.7687 0.738574 -13.5904 0.0 0.0 -0.0 0.0 -0.0 -12.018 31.6067 -8.20215 -5.84575 -0.196166 -0.875317 24.1478 -26.4632 3.43179 1.58945 -0.0 -0.0 0.0 0.0 0.0 
3483.02861635 741.341 -1543.73279163 48.6190285398 71.2853514131 -44.6574408232 -7.23122 0.155522 -0.489764 -7.23111 0.186371 -0.478875 -7.23258 0.334624 -0.389979 -7.23269 0.268835 -0.437932 -12.9806 8.03925 13.8112 -12.4723 6.59165 15.5068 -0.0 0.0 -0.0 8.5251 15.8779 15.5973 -8.03098 -18.4126 60.0349 1.39401 -34.6251 0.43454 -76.9311 -7.43138 5.31053 0.189838 21.4549 9.74874 -0.0 0.0 -0.0 11.1845 21.1178 -21.9891 -6.7197 16.7169 -54.0738 0.672107 18.4148 -0.108948 85.0547 4.43308 8.86865 0.59379 0.350527 -3.824 0.0 0.0 0.0 4.40369 17.5058 -18.6127 -43.3209 -0.691443 6.45681 -3.8013 -19.9334 0.638188 -13.1688 0.0 0.0 -0.0 0.0 -0.0 -14.4438 28.9923 -7.89086 -5.64086 -0.190808 -0.84433 21.9202 -27.451 3.1656 1.40181 -0.0 -0.0 0.0 0.0 0.0 
3478.0265264 738.143 -1544.83783303 49.8980756662 71.9159437414 -46.76144629 -7.33378 0.171081 -0.280779 -7.33375 0.188601 -0.269324 -7.33468 0.267578 -0.19107 -7.33465 0.234044 -0.230931 -13.6151 7.31669 13.8192 -13.0983 5.38286 15.3371 -0.0 0.0 -0.0 8.54864 15.9443 15.6298 -7.97455 -17.986 60.1489 1.34805 -33.7326 0.40872 -76.7868 -7.41298 5.31146 0.396864 21.0709 10.8481 -0.0 0.0 -0.0 11.2825 21.0841 -22.2144 -5.85944 17.1254 -53.8091 0.73546 20.018 -0.129802 85.0701 4.43491 8.86936 0.627734 0.358012 -4.04837 0.0 0.0 0.0 5.77332 18.3919 -18.7012 -42.4195 -0.627824 6.33362 -3.05639 -20.9814 0.517458 -13.4094 0.0 0.0 -0.0 0.0 -0.0 -15.4057 29.2928 -7.06308 -5.3413 -0.182774 -0.799059 21.4977 -27.746 3.11613 1.54125 -0.0 -0.0 0.0 0.0 0.0 
